<svg width="47" height="64" viewBox="0 0 47 64" fill="none" xmlns="http://www.w3.org/2000/svg">
<path d="M42.4507 53.9907C43.0845 53.0612 43.6498 52.0815 44.1431 51.0588L35.476 41.4485C35.2564 41.2009 34.9611 41.0573 34.655 41.0179C34.2878 40.9676 33.9025 41.0681 33.6 41.3265L30.9786 43.5765V43.5801L30.3593 44.1112L21.8074 33.6576C21.2817 33.0117 20.2951 32.9973 19.7478 33.6253L3.54785 52.322C7.4547 59.2875 14.9299 63.9957 23.5142 63.9957C30.3665 63.9957 36.5167 60.9921 40.708 56.23L34.6226 49.5372L36.7435 47.5958L42.4507 53.9907ZM21.6706 61.01L7.71036 52.6808L12.5426 47.2764L23.3378 56.9908L15.1568 54.1055L21.6706 61.01ZM29.8192 57.7049L15.1424 44.1471L19.8018 38.8432C20.3563 38.2116 21.3537 38.2403 21.8723 38.9006L33.4056 53.6498L23.633 47.2262L29.8192 57.7049Z" fill="#F6F6F6"/>
<path d="M46.3827 41.2081C46.3827 43.8314 45.9398 46.3506 45.1188 48.6975L37.1935 39.9126C36.8694 39.5538 36.4806 39.2667 36.0557 39.0657C41.2732 30.2808 36.2321 17.5986 36.1277 17.3367C36.2897 17.5161 43.1708 25.2675 45.5725 35.1792C46.1019 37.0956 46.3827 39.1195 46.3827 41.2081Z" fill="white"/>
<path d="M22.0378 21.9838C18.6386 26.3225 16.8058 29.6706 15.8264 32.1037C15.1567 33.7616 14.883 34.9961 14.7822 35.8323L2.4459 50.0755C1.28645 47.3517 0.645508 44.3516 0.645508 41.208C0.645508 37.1636 1.70414 33.3633 3.55854 30.0726C3.68457 32.4446 4.16348 35.6959 5.72262 38.0716C5.72262 38.0716 4.30751 31.4039 8.58884 23.9396C9.67988 22.0377 11.1418 20.089 13.0898 18.1835C16.8166 14.5267 19.2184 11.5051 20.7019 8.96435C23.0316 4.98458 23.1144 2.18905 22.5923 0C22.5923 0 22.5923 0 22.5959 0.00358861C22.7471 0.23326 30.1756 11.5948 22.0378 21.9838Z" fill="white"/>
<path d="M36.0554 39.0621C35.5657 38.8288 35.0291 38.7032 34.4746 38.7032C33.5996 38.7032 32.757 39.0154 32.0909 39.5824L31.6948 39.9234L30.6506 40.8205L23.6002 32.2043C22.9053 31.3502 21.8683 30.8585 20.7628 30.8585C19.7006 30.8585 18.6888 31.3179 17.9974 32.1217L15.124 35.4376L14.7783 35.8359C14.8827 34.9998 15.1528 33.7653 15.8225 32.1074C16.802 29.6743 18.6348 26.3261 22.0339 21.9875C30.1717 11.5949 22.7397 0.236922 22.5884 0.00366211C22.8117 0.132852 33.4376 6.33038 32.4798 20.2362C32.3322 22.3571 31.9181 24.6574 31.1547 27.1443C31.1547 27.1443 33.5456 25.2459 35.0508 21.5246C35.2704 20.9755 35.4756 20.3834 35.6449 19.759L35.6521 19.7374C35.8645 18.9874 36.023 18.1872 36.1238 17.3259C36.1238 17.3259 36.1238 17.3295 36.1274 17.3295C36.2318 17.5914 41.2729 30.2772 36.0554 39.0621Z" fill="white"/>
<path d="M36.124 17.3257C36.0196 18.1834 35.8612 18.9836 35.6523 19.7372L36.124 17.3257Z" fill="white"/>
</svg>
